<svg clip-rule="evenodd" fill-rule="evenodd" image-rendering="optimizeQuality"
    shape-rendering="geometricPrecision" text-rendering="geometricPrecision"
    viewBox="0 0 177800 177800" xmlns="http://www.w3.org/2000/svg">
    <g id="&#x56FE;&#x5C42;_x0020_1">
        <path
            d="m88900 0c49090 0 88900 39810 88900 88900s-39810 88900-88900 88900-88900-39810-88900-88900 39810-88900 88900-88900z"
            fill="#48b02c" />
        <g id="_136361800" fill="#fff">
            <path id="_141421856"
                d="m148166 85284c-382 1684-663 3399-1166 5046-1429 4686-3925 8706-7847 11717-3233 2482-6847 3842-10917 2572-4549-1421-6793-5018-7562-9413-1562-8934 1240-16500 7894-22608 2142-1966 4712-3234 7654-3496 4493-399 8324 1855 10252 6191 785 1766 1141 3722 1693 5592-1 1466-1 2932-1 4399z" />
            <path id="_136364032"
                d="m29634 81348c435-1663 708-3392 1339-4978 1585-3988 4431-6570 8846-6961 3182-282 5999 883 8499 2762 4925 3699 7667 8754 8857 14707 717 3580 613 7134-648 10600-2569 7064-9227 9614-15790 5953-5120-2855-8154-7413-9915-12874-528-1638-799-3359-1188-5041 0-1390 0-2779 0-4168z" />
            <path id="_141423704"
                d="m118183 144630c-4437-757-8874-1518-13312-2269-4368-741-8721-1588-13108-2180-6621-894-13044 576-19463 1937-4712 999-9413 2011-14281 2008-10624-8-16456-9558-13177-18777 1963-5522 5305-10133 9788-13799 6305-5157 11646-11117 16106-17907 910-1384 1833-2787 2945-4004 1996-2183 3924-4518 6266-6275 4702-3525 10056-4315 15684-2498 3128 1010 5514 3123 7318 5785 1812 2674 3385 5512 5049 8286 4090 6821 8982 13007 14825 18401 4055 3743 7285 7957 8525 13449 807 3572 468 7039-1029 10397-2044 4589-5582 6928-10578 7105-502 18-1003 2-1505 2-18 113-35 226-53 339z" />
            <path id="_141486080"
                d="m93380 56004c297-6989 2636-14064 8885-19367 4587-3893 10239-4524 14801-1803 3035 1811 5142 4485 6295 7752 3643 10315 1863 19722-5213 28051-2111 2485-4849 4192-8083 4876-4732 1000-8670-524-11833-4086-3157-3556-4877-8810-4852-15423z" />
            <path id="_136362640"
                d="m52548 53409c139-3728 804-7293 2497-10629 4522-8912 14119-10638 21431-3815 4693 4379 7032 9930 7787 16211 545 4530 28 8939-1916 13094-1950 4168-4890 7303-9592 8290-3683 773-7053-165-10074-2291-5301-3729-8106-9057-9405-15256-386-1838-493-3735-728-5604z" />
        </g>
    </g>
</svg>